# xmcd
#
# Track frame offsets:
#	150
#	13387
#	25466
#	38364
#	51677
#	65025
#	79235
#	92106
#	104525
#	118501
#	131482
#	144756
#	157952
#	171739
#	185532
#	196765
#	208741
#	222032
#	234940
#	249405
#	262429
#	275755
#	288969
#	303474
#	316443
#	329304
#
# Disc length: 4586 seconds
#
# Revision: 1
# Processed by: cddbd v1.5.2PL0 Copyright (c) Steve Scherf et al.
# Submitted via: audiograbber 1.83.01
#
DISCID=8e11e81a
DTITLE=Yank Rachell,'Brownsville' Son Bonds,Charlie Pickett - Sleepy John Estes
DTITLE=, Cd 4 - various
DYEAR=2006
DGENRE=Blues
TTITLE0=Yank Rachell - She Loves Who She Please
TTITLE1=Yank Rachell - Bye-Bye Blues
TTITLE2=Yank Rachell - Loudella Blues
TTITLE3=Yank Rachell - Katy Lee Blues
TTITLE4='Brownsville' Son Bonds - All Night Long
TTITLE5='Brownsville' Son Bonds - She Walks Like My Woman
TTITLE6='Brownsville' Son Bonds - Weary Worried Blues
TTITLE7='Brownsville' Son Bonds - Back and Side Blues
TTITLE8='Brownsville' Son Bonds - I Want to Live So God Can Use Me
TTITLE9='Brownsville' Son Bonds - Ain't That News
TTITLE10='Brownsville' Son Bonds - Give Me That Old Time Religion
TTITLE11='Brownsville' Son Bonds - In My Father's House
TTITLE12='Brownsville' Son Bonds - Trouble Trouble Blues
TTITLE13='Bownsville' Son Bonds - Tennessee Worried Blues
TTITLE14='Brownsville' Son Bonds - I'll Work Up to You Someday
TTITLE15='Brownsville' Son Bonds - Old Bachelor Blues
TTITLE16='Brownsville' Son Bonds - Black Gal Swing
TTITLE17='Brownsville' 'Son Bonds - Get Up and Go
TTITLE18='Brownsville' Son Bonds - Every Time My Heart Beats
TTITLE19='Brownsville' Son Bonds - 80 Highway Blues
TTITLE20='Brownsville' Son Bonds - A Hard Pill to Swallow
TTITLE21='Brownsville' Son Bonds - Come Back Home, Little Girl
TTITLE22=Charlie Pickett - Crazy 'bout My Black Gal
TTITLE23=Charlie Pickett - Trembling Blues
TTITLE24=Charlie Pickett - Let Me Squeeze Your Lemon
TTITLE25=Charlie Pickett - Down the Highway
EXTD=
EXTT0=
EXTT1=
EXTT2=
EXTT3=
EXTT4=
EXTT5=
EXTT6=
EXTT7=
EXTT8=
EXTT9=
EXTT10=
EXTT11=
EXTT12=
EXTT13=
EXTT14=
EXTT15=
EXTT16=
EXTT17=
EXTT18=
EXTT19=
EXTT20=
EXTT21=
EXTT22=
EXTT23=
EXTT24=
EXTT25=
PLAYORDER=
